# xmcd
#
# Track frame offsets:
#  150
#  12042
#  21794
#  36388
#  48105
#  57740
#  69193
#  78542
#  90246
#  101593
#  114174
#  125982
#
# Disc length: 1816 seconds
#
# Revision: 0
# Processed by: cddbd v1.5.1PL0 Copyright (c) Steve Scherf et al.
# Submitted via: Collectorz.com_Music_Collector 6.9
#
DISCID=9307160c
DTITLE=jean shepard - Your Forevers Don't Last Very Long
DYEAR=1900
DGENRE=
TTITLE0=Your Forevers 
TTITLE1=Born A Woman
TTITLE2=I'm Living In Two Worlds
TTITLE3=Possession Is Nine Tenths Of The Law
TTITLE4=My Mama Didn't Raise Mon Fools
TTITLE5=Happy Tracks
TTITLE6=Be Nice To Everybody
TTITLE7=There Goes My Everythin
TTITLE8=Walk Throught This World With Me
TTITLE9=I Can't Cry Him Away
TTITLE10=Life Turned Him That Way
TTITLE11=Coming Or Going
EXTD=
EXTT0=
EXTT1=
EXTT2=
EXTT3=
EXTT4=
EXTT5=
EXTT6=
EXTT7=
EXTT8=
EXTT9=
EXTT10=
EXTT11=
PLAYORDER=
